<svg baseProfile="tiny" overflow="scroll" viewBox="0 0 24 24" xml:space="preserve" xmlns="http://www.w3.org/2000/svg"><path d="M2.524 23.5h18.952a.75.75 0 0 0 .75-.75V4.92c0-.198-.08-.39-.221-.53L18.32.719A.75.75 0 0 0 17.79.5H2.525a.75.75 0 0 0-.75.75v21.5c0 .414.336.75.75.75zM20.713 5.22h-2.699V2.53l2.699 2.689zM3.274 2h13.24v3.97c0 .414.336.75.75.75h3.462V22H3.274V2z" fill="#ffffff" class="fill-1d1d1d"></path><path d="M8.75 10.25h1.75a.75.75 0 0 0 0-1.5H8a.75.75 0 0 0-.75.75v2.75H6a.75.75 0 0 0 0 1.5h1.25v2.75c0 .414.336.75.75.75h2.5a.75.75 0 0 0 0-1.5H8.75v-5.5zM18.5 12.25h-1.25V9.5a.75.75 0 0 0-.75-.75H14a.75.75 0 0 0 0 1.5h1.75v5.5H14a.75.75 0 0 0 0 1.5h2.5a.75.75 0 0 0 .75-.75v-2.75h1.25a.75.75 0 0 0 0-1.5z" fill="#ffffff" class="fill-1d1d1d"></path></svg>