<?xml version="1.0" standalone="no"?>
<!DOCTYPE svg PUBLIC "-//W3C//DTD SVG 20010904//EN"
 "http://www.w3.org/TR/2001/REC-SVG-20010904/DTD/svg10.dtd">
<svg version="1.0" xmlns="http://www.w3.org/2000/svg"
 width="128.000000pt" height="128.000000pt" viewBox="0 0 128.000000 128.000000"
 preserveAspectRatio="xMidYMid meet">
<metadata>
Created by potrace 1.14, written by Peter Selinger 2001-2017
</metadata>
<g transform="translate(0.000000,128.000000) scale(0.100000,-0.100000)"
fill="#000000" stroke="none">
<path d="M116 1245 c-21 -11 -21 -15 -21 -599 0 -430 3 -593 11 -604 10 -14
69 -16 533 -16 397 0 524 3 533 12 10 10 13 131 13 504 l0 492 -108 108 c-59
59 -113 108 -120 109 -6 1 -194 2 -416 3 -261 0 -412 -3 -425 -9z m762 -186
c1 -62 7 -118 13 -124 5 -5 56 -12 112 -15 l102 -5 0 -402 c0 -397 0 -403 -20
-404 -25 -1 -886 -1 -900 0 -7 1 -10 183 -10 531 0 522 0 529 20 532 11 2 169
3 350 2 l330 -1 3 -114z m157 11 l70 -70 -73 1 -72 2 0 68 c0 38 1 69 3 69 1
0 34 -32 72 -70z"/>
<path d="M424 812 c-32 -6 -36 -18 -37 -101 0 -75 -1 -81 -21 -82 -65 -2 -85
-13 -86 -46 0 -15 40 -44 52 -37 5 3 19 3 32 0 21 -5 23 -11 23 -81 1 -102 5
-106 111 -103 68 2 87 6 96 21 20 31 -4 51 -69 57 l-58 5 -1 134 c-1 91 3 138
11 146 6 7 29 10 51 8 58 -6 94 36 57 67 -14 12 -119 19 -161 12z"/>
<path d="M725 807 c-21 -11 -19 -54 3 -66 9 -5 33 -9 52 -9 19 0 41 0 48 -1 9
-1 12 -37 12 -146 l0 -144 -56 -3 c-64 -3 -88 -23 -68 -55 9 -14 28 -19 94
-21 52 -2 87 1 96 9 10 8 14 35 14 93 l0 82 42 1 c37 1 68 20 68 42 -1 19 -23
35 -52 37 -18 1 -39 3 -45 3 -9 1 -13 24 -13 80 0 56 -4 82 -14 90 -17 14
-160 20 -181 8z"/>
</g>
</svg>
